<?xml version="1.0" standalone="no"?><!DOCTYPE svg PUBLIC "-//W3C//DTD SVG 1.1//EN" "http://www.w3.org/Graphics/SVG/1.1/DTD/svg11.dtd"><svg t="1731568190957" class="icon" viewBox="0 0 1024 1024" version="1.1" xmlns="http://www.w3.org/2000/svg" p-id="4292" xmlns:xlink="http://www.w3.org/1999/xlink" width="200" height="200"><path d="M582.294588 0l-461.824 0 0 1024 783.058824 0 0-704.271059-321.234824-319.728941zM602.352941 104.929882l197.150118 196.246588-197.150118 0 0-196.246588zM180.705882 963.764706l0-903.529412 180.705882 0 0 60.235294 60.235294 0 0-60.235294 120.470588 0 0 301.176471 301.176471 0 0 602.352941-662.588235 0zM301.176471 481.882353l60.235294 0 0 60.235294-60.235294 0 0-60.235294zM361.411765 481.882353l0-60.235294 60.235294 0 0 60.235294-60.235294 0zM361.411765 361.411765l0-60.235294 60.235294 0 0 60.235294-60.235294 0zM301.176471 361.411765l60.235294 0 0 60.235294-60.235294 0 0-60.235294zM301.176471 240.941176l60.235294 0 0 60.235294-60.235294 0 0-60.235294zM361.411765 240.941176l0-60.235294 60.235294 0 0 60.235294-60.235294 0zM301.176471 120.470588l60.235294 0 0 60.235294-60.235294 0 0-60.235294zM361.411765 565.549176c-66.439529 0-120.470588 54.031059-120.470588 120.470588s54.031059 120.470588 120.470588 120.470588c3.734588 0 7.288471-0.421647 13.191529-1.204706 38.912-4.276706 73.366588-27.407059 92.220235-61.801412 9.999059-18.251294 15.058824-37.586824 15.058824-57.464471 0-66.439529-54.031059-120.470588-120.470588-120.470588zM413.997176 714.631529c-9.396706 17.167059-26.563765 28.732235-45.899294 30.840471l-6.746353 0.843294c-33.189647 0-60.175059-27.045647-60.175059-60.235294s27.045647-60.235294 60.235294-60.235294 60.235294 27.045647 60.235294 60.235294c0 9.577412-2.590118 19.215059-7.649882 28.551529z" fill="#000000" p-id="4293"></path></svg>